<svg width="64" height="36" viewBox="0 0 64 36" fill="none" xmlns="http://www.w3.org/2000/svg">
<path d="M1.72257e-05 27V9.36H2.50802V27H1.72257e-05ZM10.7796 27.36C9.49158 27.36 8.35958 27.08 7.38358 26.52C6.41558 25.952 5.65958 25.164 5.11558 24.156C4.57958 23.14 4.31158 21.964 4.31158 20.628C4.31158 19.212 4.57558 17.984 5.10358 16.944C5.63958 15.904 6.38358 15.1 7.33558 14.532C8.28758 13.964 9.39558 13.68 10.6596 13.68C11.9796 13.68 13.1036 13.988 14.0316 14.604C14.9596 15.212 15.6516 16.08 16.1076 17.208C16.5716 18.336 16.7556 19.676 16.6596 21.228H14.1516V20.316C14.1356 18.812 13.8476 17.7 13.2876 16.98C12.7356 16.26 11.8916 15.9 10.7556 15.9C9.49958 15.9 8.55558 16.296 7.92358 17.088C7.29158 17.88 6.97558 19.024 6.97558 20.52C6.97558 21.944 7.29158 23.048 7.92358 23.832C8.55558 24.608 9.46758 24.996 10.6596 24.996C11.4436 24.996 12.1196 24.82 12.6876 24.468C13.2636 24.108 13.7116 23.596 14.0316 22.932L16.4916 23.712C15.9876 24.872 15.2236 25.772 14.1996 26.412C13.1756 27.044 12.0356 27.36 10.7796 27.36ZM6.15958 21.228V19.272H15.4116V21.228H6.15958ZM33.4483 27L33.4603 18.924C33.4603 17.988 33.2203 17.26 32.7403 16.74C32.2603 16.212 31.6283 15.948 30.8443 15.948C30.3643 15.948 29.9243 16.06 29.5243 16.284C29.1323 16.5 28.8123 16.828 28.5643 17.268C28.3243 17.7 28.2043 18.244 28.2043 18.9L26.9923 18.288C26.9763 17.376 27.1683 16.576 27.5683 15.888C27.9763 15.2 28.5283 14.668 29.2243 14.292C29.9203 13.908 30.7003 13.716 31.5643 13.716C32.9643 13.716 34.0483 14.136 34.8163 14.976C35.5843 15.816 35.9683 16.932 35.9683 18.324L35.9563 27H33.4483ZM17.9083 27V14.04H20.1403V17.784H20.4283V27H17.9083ZM25.6843 27L25.6963 18.972C25.6963 18.028 25.4563 17.288 24.9763 16.752C24.5043 16.216 23.8683 15.948 23.0683 15.948C22.2763 15.948 21.6363 16.22 21.1483 16.764C20.6683 17.308 20.4283 18.02 20.4283 18.9L19.2283 18.132C19.2283 17.284 19.4323 16.528 19.8403 15.864C20.2483 15.2 20.8003 14.676 21.4963 14.292C22.1923 13.908 22.9803 13.716 23.8603 13.716C24.7803 13.716 25.5643 13.912 26.2123 14.304C26.8603 14.688 27.3523 15.228 27.6883 15.924C28.0323 16.62 28.2043 17.428 28.2043 18.348L28.1923 27H25.6843ZM43.4683 27.36C42.1723 27.36 41.0483 27.068 40.0963 26.484C39.1443 25.9 38.4083 25.096 37.8883 24.072C37.3763 23.04 37.1203 21.852 37.1203 20.508C37.1203 19.156 37.3843 17.968 37.9123 16.944C38.4403 15.912 39.1803 15.112 40.1323 14.544C41.0843 13.968 42.1963 13.68 43.4683 13.68C44.7643 13.68 45.8883 13.972 46.8403 14.556C47.7923 15.14 48.5283 15.944 49.0483 16.968C49.5683 17.992 49.8283 19.172 49.8283 20.508C49.8283 21.86 49.5643 23.052 49.0363 24.084C48.5163 25.108 47.7803 25.912 46.8283 26.496C45.8763 27.072 44.7563 27.36 43.4683 27.36ZM43.4683 24.996C44.7083 24.996 45.6323 24.58 46.2403 23.748C46.8563 22.908 47.1643 21.828 47.1643 20.508C47.1643 19.156 46.8523 18.076 46.2283 17.268C45.6123 16.452 44.6923 16.044 43.4683 16.044C42.6283 16.044 41.9363 16.236 41.3923 16.62C40.8483 16.996 40.4443 17.52 40.1803 18.192C39.9163 18.856 39.7843 19.628 39.7843 20.508C39.7843 21.868 40.0963 22.956 40.7203 23.772C41.3443 24.588 42.2603 24.996 43.4683 24.996ZM60.4813 27V20.628C60.4813 20.124 60.4373 19.608 60.3493 19.08C60.2693 18.544 60.1093 18.048 59.8693 17.592C59.6373 17.136 59.3053 16.768 58.8733 16.488C58.4493 16.208 57.8933 16.068 57.2053 16.068C56.7573 16.068 56.3333 16.144 55.9333 16.296C55.5333 16.44 55.1813 16.676 54.8773 17.004C54.5813 17.332 54.3453 17.764 54.1693 18.3C54.0013 18.836 53.9173 19.488 53.9173 20.256L52.3573 19.668C52.3573 18.492 52.5773 17.456 53.0173 16.56C53.4573 15.656 54.0893 14.952 54.9133 14.448C55.7373 13.944 56.7333 13.692 57.9013 13.692C58.7973 13.692 59.5493 13.836 60.1573 14.124C60.7653 14.412 61.2573 14.792 61.6333 15.264C62.0173 15.728 62.3093 16.236 62.5093 16.788C62.7093 17.34 62.8453 17.88 62.9173 18.408C62.9893 18.936 63.0253 19.4 63.0253 19.8V27H60.4813ZM51.3733 27V14.04H53.6173V17.784H53.9173V27H51.3733Z" fill="black"/>
</svg>
